[img]http://img706.imageshack.us/img706/5860/arroww.jpg[/img]

[size=200][color=black]TV INFO[/color][/size]

[code]Arrow S01E14 HDTV x264 AAC-V3nom

Format                                   : MPEG-4
Format profile                           : Base Media / Version 2
Codec ID                                 : mp42
File size                                : 148 MiB
Duration                                 : 42mn 31s
Overall bit rate mode                    : Variable
Overall bit rate                         : 488 Kbps
Encoded date                             : UTC 2013-02-13 19:52:37
Tagged date                              : UTC 2013-02-13 20:06:00

Video
ID                                       : 1
Format                                   : AVC
Format/Info                              : Advanced Video Codec
Format profile                           : Main@L2.1
Format settings, CABAC                   : Yes
Format settings, ReFrames                : 4 frames
Codec ID                                 : avc1
Codec ID/Info                            : Advanced Video Coding
Duration                                 : 42mn 31s
Bit rate mode                            : Variable
Bit rate                                 : 393 Kbps
Width                                    : 624 pixels
Height                                   : 256 pixels
Display aspect ratio                     : 16:9
Frame rate mode                          : Variable
Frame rate                               : 23.976 fps
Minimum frame rate                       : 23.974 fps
Maximum frame rate                       : 23.981 fps
Color space                              : YUV
Chroma subsampling                       : 4:2:0
Bit depth                                : 8 bits
Scan type                                : Progressive
Bits/(Pixel*Frame)                       : 0.103
Stream size                              : 118 MiB (79%)
Writing library                          : x264 core 112

Audio
ID                                       : 2
Format                                   : AAC
Format/Info                              : Advanced Audio Codec
Format profile                           : LC
Codec ID                                 : 40
Duration                                 : 42mn 31s
Bit rate mode                            : Variable
Bit rate                                 : 96.0 Kbps
Maximum bit rate                         : 119 Kbps
Channel(s)                               : 2 channels
Channel positions                        : Front: L R
Sampling rate                            : 48.0 KHz
Compression mode                         : Lossy
Delay relative to video                  : 83ms
Stream size                              : 29.2 MiB (20%)
Encoded date                             : UTC 2013-02-13 19:52:37
Tagged date                              : UTC 2013-02-13 20:05:58[/code]

[size=200][color=black]SOURCE[/color][/size]

[code]Arrow S01E14 HDTV WEB-DL XviD-FNM[ettv](THANKS)[/code]

[size=200][color=black]SCREENSHOTS[/color][/size]

[img]http://img834.imageshack.us/img834/3662/arrows01e14hdtvx264aacv.jpg[/img]

[img]http://kastatic.com/i2/users/133df62bbf28e62494bb17fe11078f1a.gif[/img][img]http://kastatic.com/i2/users/133df62bbf28e62494bb17fe11078f1a.gif[/img]
